# xmcd
#
# Track frame offsets: 
#        182
#        20092
#        38325
#        64660
#        82527
#        102560
#        123135
#        139220
#        155647
#        186970
#        209950
#        225065
#        249350
#
# Disc length: 3655 seconds
#
# Revision: 0
# Processed by: cddbd v1.5.2PL0 Copyright (c) Steve Scherf et al.
# Submitted via: ExactAudioCopy v0.95a5
#
DISCID=a40e450d
DTITLE=Studebaker John and The Hawks - Born To Win
DYEAR=1990
DGENRE=Blues
TTITLE0=Roll, Roll, Roll
TTITLE1=Pleasure And Pain
TTITLE2=Clouds Of Darkness
TTITLE3=Some Were Born To Win
TTITLE4=Little Girl
TTITLE5=Without You
TTITLE6=Just Coastin'
TTITLE7=She's So Kind
TTITLE8=Open The Door
TTITLE9=Dirty Lie
TTITLE10=Hey Baby
TTITLE11=Let's Boogie Tonight
TTITLE12=King Of Cheap
EXTD=
EXTT0=
EXTT1=
EXTT2=
EXTT3=
EXTT4=
EXTT5=
EXTT6=
EXTT7=
EXTT8=
EXTT9=
EXTT10=
EXTT11=
EXTT12=
PLAYORDER=
